<mxfile host="65bd71144e">
    <diagram id="M4O6au9YO6AHVVX2-OvQ" name="第 1 页">
        <mxGraphModel dx="1509" dy="997" grid="1" gridSize="10" guides="1" tooltips="1" connect="1" arrows="1" fold="1" page="1" pageScale="1" pageWidth="827" pageHeight="1169" math="0" shadow="0">
            <root>
                <mxCell id="0"/>
                <mxCell id="1" parent="0"/>
                <mxCell id="5" value="" style="group" vertex="1" connectable="0" parent="1">
                    <mxGeometry x="320" y="160" width="250" height="300" as="geometry"/>
                </mxCell>
                <mxCell id="2" value="dssa&amp;nbsp;" style="rounded=0;whiteSpace=wrap;html=1;" vertex="1" parent="5">
                    <mxGeometry y="240" width="120" height="60" as="geometry"/>
                </mxCell>
                <mxCell id="3" value="dfd&amp;nbsp;" style="shape=cylinder3;whiteSpace=wrap;html=1;boundedLbl=1;backgroundOutline=1;size=15;" vertex="1" parent="5">
                    <mxGeometry x="190" width="60" height="80" as="geometry"/>
                </mxCell>
                <mxCell id="4" value="" style="endArrow=none;html=1;entryX=0;entryY=1;entryDx=0;entryDy=-15;entryPerimeter=0;" edge="1" parent="5" source="2" target="3">
                    <mxGeometry width="50" height="50" relative="1" as="geometry">
                        <mxPoint x="280" y="270" as="sourcePoint"/>
                        <mxPoint x="192" y="80" as="targetPoint"/>
                    </mxGeometry>
                </mxCell>
                <mxCell id="6" value="&lt;table border=&quot;1&quot; width=&quot;100%&quot; height=&quot;100%&quot; cellpadding=&quot;4&quot; style=&quot;width:100%;height:100%;border-collapse:collapse;&quot;&gt;&lt;tr&gt;&lt;th align=&quot;center&quot;&gt;&lt;b&gt;Title&lt;/b&gt;&lt;/th&gt;&lt;/tr&gt;&lt;tr&gt;&lt;td align=&quot;center&quot;&gt;Section 1.1&#10;Section 1.2&#10;Section 1.3&lt;/td&gt;&lt;/tr&gt;&lt;tr&gt;&lt;td align=&quot;center&quot;&gt;Section 2.1&#10;Section 2.2&#10;Section 2.3&lt;/td&gt;&lt;/tr&gt;&lt;/table&gt;" style="text;html=1;strokeColor=none;fillColor=none;overflow=fill;" vertex="1" parent="1">
                    <mxGeometry x="70" y="500" width="160" height="140" as="geometry"/>
                </mxCell>
            </root>
        </mxGraphModel>
    </diagram>
</mxfile>